<?xml version="1.0" encoding="UTF-8"?>
<svg version="1.1" xmlns="http://www.w3.org/2000/svg" width="4500" height="4500">
<path d="M0 0 C171.13091874 -0.08627231 171.13091874 -0.08627231 306.35101318 -0.12702942 C307.88054159 -0.12744777 309.41006999 -0.12786613 310.9395984 -0.12828448 C343.05545984 -0.13705539 375.17132141 -0.14520522 407.28718318 -0.15263903 C423.42366439 -0.15637478 439.56014558 -0.16022969 455.69662674 -0.16419732 C458.13052479 -0.16479508 460.56442284 -0.16538943 462.99832089 -0.16598364 C500.40993422 -0.17514722 537.82154462 -0.18684256 575.2331543 -0.20599365 C576.43674064 -0.2066097 576.43674064 -0.2066097 577.66464186 -0.20723819 C590.5988681 -0.21387405 603.53309423 -0.22072536 616.46732034 -0.22760532 C653.79073182 -0.24745507 691.11414099 -0.26567193 728.43755722 -0.27341938 C729.59255158 -0.27366029 729.59255158 -0.27366029 730.77087916 -0.27390606 C747.68747355 -0.27740601 764.60406798 -0.28008934 781.52066262 -0.28200295 C788.33070777 -0.28278764 795.14075291 -0.28368953 801.95079803 -0.28463173 C802.69605729 -0.28473201 803.44131654 -0.28483229 804.2091594 -0.28493561 C828.09153034 -0.28820722 851.9738843 -0.30095949 875.85624842 -0.31884663 C899.97907664 -0.33686943 924.10188851 -0.34526282 948.22472362 -0.34087196 C961.91057239 -0.33839037 975.59638588 -0.34020936 989.28222656 -0.35761642 C1071.6391299 -0.45818632 1153.04601593 1.72478542 1234.80645752 12.70690918 C1236.89233813 12.98561473 1238.97893002 13.2580482 1241.06591797 13.52832031 C1288.84884751 19.78767464 1336.23960634 29.43773491 1383 41 C1384.05596375 41.2608136 1385.11192749 41.5216272 1386.19989014 41.79034424 C1448.28826842 57.1706401 1509.45251556 76.29445182 1568.83673096 100.13262939 C1570.97667677 100.99064847 1573.11867765 101.8433387 1575.26123047 102.69482422 C1610.17539183 116.59630823 1644.32014223 132.34435441 1677.99481201 149.00848389 C1680.05033996 150.02489187 1682.10729621 151.03836134 1684.16455078 152.05126953 C1700.97917759 160.33592045 1717.6685401 168.78918006 1734 178 C1735.05010254 178.59216309 1736.10020508 179.18432617 1737.18212891 179.79443359 C1745.47987259 184.48634519 1753.7463612 189.23105456 1762 194 C1762.91897064 194.53037872 1762.91897064 194.53037872 1763.85650635 195.07147217 C1806.73367478 219.82433196 1847.97899226 247.34645001 1887.97265625 276.52246094 C1889.91601876 277.93879402 1891.86374364 279.34891432 1893.8125 280.7578125 C1902.98645512 287.41143701 1911.94450617 294.3270797 1920.86035156 301.32177734 C1922.86043319 302.89053146 1924.86332843 304.45560703 1926.8671875 306.01953125 C1933.99004404 311.58635887 1941.02192433 317.25213323 1948 323 C1949.79157706 324.45844341 1951.58324502 325.91677517 1953.375 327.375 C1958.01629471 331.17001876 1962.59807719 335.03034189 1967.16357422 338.91577148 C1970.56906544 341.80847257 1974.01703122 344.6379626 1977.5 347.4375 C1982.87854748 351.81100503 1987.93452931 356.48818279 1993 361.21484375 C1995.96948489 363.98346261 1999.0075388 366.66388976 2002.07421875 369.32421875 C2013.78752377 379.51693245 2025.27059737 390.08833602 2036.14271545 401.17515564 C2037.93439013 402.93553611 2039.78318069 404.57099458 2041.69311523 406.20141602 C2046.11658835 410.04948935 2050.27146593 414.12708537 2054.41015625 418.27734375 C2055.56686073 419.43261314 2055.56686073 419.43261314 2056.74693298 420.61122131 C2058.36580153 422.22941373 2059.98342551 423.84885212 2061.59985352 425.46948242 C2064.05568718 427.93067232 2066.51681365 430.38647809 2068.97851562 432.84179688 C2070.56021653 434.42415867 2072.14160717 436.00683067 2073.72265625 437.58984375 C2074.44888687 438.31405014 2075.17511749 439.03825653 2075.9233551 439.78440857 C2079.93767859 443.81695477 2083.77491192 447.94672183 2087.49125671 452.25544739 C2089.23302486 454.26944553 2091.03329005 456.21815405 2092.8671875 458.1484375 C2093.52066162 458.8386499 2094.17413574 459.5288623 2094.84741211 460.23999023 C2095.85106812 461.29682007 2095.85106812 461.29682007 2096.875 462.375 C2101.98203619 467.77690917 2107.05302867 473.19725896 2111.99609375 478.75 C2113.3953531 480.32109821 2114.80508452 481.88290465 2116.22265625 483.4375 C2120.91217417 488.58551281 2125.37058986 493.86781246 2129.75 499.28125 C2131.93501569 501.92147729 2134.19171391 504.4672972 2136.5 507 C2140.72415948 511.64584838 2144.69892532 516.45689808 2148.64697266 521.33789062 C2150.18583116 523.22828195 2151.73834595 525.10692707 2153.29296875 526.984375 C2172.95515372 550.73041153 2191.66460224 575.28393046 2209.75 600.25 C2210.21986328 600.89702881 2210.68972656 601.54405762 2211.17382812 602.21069336 C2220.40651575 615.0249729 2229.18205599 628.16982785 2237.9375 641.3125 C2238.41589325 642.03022583 2238.8942865 642.74795166 2239.38717651 643.48742676 C2246.28041058 653.83624576 2253.09291872 664.22472025 2259.63574219 674.79980469 C2261.08394828 677.13538688 2262.54520121 679.46247713 2264.0078125 681.7890625 C2278.39780307 704.75589821 2291.9497409 728.24927204 2305 752 C2305.56299805 753.02158203 2306.12599609 754.04316406 2306.70605469 755.09570312 C2324.60798127 787.69445216 2341.18758689 821.06778447 2356.16650391 855.10839844 C2356.99576673 856.99039268 2357.82930172 858.87043869 2358.6640625 860.75 C2373.54262005 894.28452716 2386.68024968 928.45009198 2399 963 C2399.40348663 964.12894684 2399.40348663 964.12894684 2399.81512451 965.28070068 C2414.30974592 1005.87622146 2426.40259558 1047.22711729 2437 1089 C2437.21851624 1089.85968384 2437.43703247 1090.71936768 2437.66217041 1091.60510254 C2457.14449679 1168.46783727 2469.51126373 1247.00023864 2476 1326 C2476.07047546 1326.85416504 2476.14095093 1327.70833008 2476.21356201 1328.58837891 C2479.99204777 1374.83207775 2481.82047323 1421.60103228 2481 1468 C2480.98066406 1469.30243652 2480.96132813 1470.60487305 2480.94140625 1471.94677734 C2479.40460489 1570.03221621 2467.22801959 1668.38206679 2439 1790 C2438.77999329 1790.88131592 2438.55998657 1791.76263184 2438.33331299 1792.6706543 C2427.99755099 1834.01370229 2415.84745168 1874.7009217 2402 1915 C2401.50683396 1916.44042901 2401.0136699 1917.8808587 2400.52050781 1919.32128906 C2393.27000165 1940.45340631 2385.41300497 1961.30404318 2377 1982 C2376.70631531 1982.72336548 2376.41263062 1983.44673096 2376.11004639 1984.1920166 C2361.8378053 2019.30811233 2346.27080042 2053.83709956 2329.17578125 2087.67578125 C2327.44597702 2091.10147198 2325.74226323 2094.5395448 2324.04296875 2097.98046875 C2317.49358788 2111.21551133 2310.73776306 2124.29529513 2303.55664062 2137.19873047 C2301.94000914 2140.1079572 2300.3369105 2143.02439431 2298.734375 2145.94140625 C2290.90245686 2160.13259347 2282.65443292 2174.03909479 2274.16403198 2187.84214783 C2271.84782599 2191.6091393 2269.55580158 2195.38976539 2267.27734375 2199.1796875 C2246.31514166 2233.88914259 2223.26026335 2267.52160893 2199 2300 C2197.98418586 2301.36704697 2196.9685555 2302.73423053 2195.953125 2304.1015625 C2185.822658 2317.71057339 2175.42919672 2331.11071129 2164.68383789 2344.23999023 C2161.22708379 2348.46807309 2157.84646189 2352.74686087 2154.5 2357.0625 C2150.08344433 2362.74162244 2145.43903967 2368.19179239 2140.69750977 2373.60131836 C2137.53103739 2377.21684208 2134.44654911 2380.87593158 2131.4375 2384.625 C2127.11304362 2389.96884941 2122.4721949 2394.97688399 2117.78515625 2400 C2115.02028676 2402.96546349 2112.34278992 2405.99870393 2109.6875 2409.0625 C2099.99029302 2420.19633024 2090.03851579 2431.19467138 2079.44921875 2441.48828125 C2077.51054903 2443.4764226 2075.70847973 2445.48399388 2073.90527344 2447.59033203 C2069.81603136 2452.2777392 2065.46912564 2456.67494164 2061.06640625 2461.06640625 C2060.22963852 2461.90413071 2059.39287079 2462.74185516 2058.53074646 2463.60496521 C2056.77131896 2465.36506935 2055.01064347 2467.12392677 2053.2487793 2468.8815918 C2050.57030589 2471.55470972 2047.89721127 2474.23312251 2045.22460938 2476.91210938 C2043.50552885 2478.63052903 2041.78613811 2480.34863842 2040.06640625 2482.06640625 C2038.88166466 2483.25418419 2038.88166466 2483.25418419 2037.67298889 2484.46595764 C2033.47722044 2488.64426894 2029.19938572 2492.65900938 2024.71250916 2496.52330017 C2022.76044283 2498.20657059 2020.87094094 2499.94594994 2019 2501.71875 C2018.34 2502.34136719 2017.68 2502.96398438 2017 2503.60546875 C2016.34 2504.23066406 2015.68 2504.85585937 2015 2505.5 C2010.3459372 2509.90863371 2005.64082385 2514.23010841 2000.79931641 2518.43261719 C1998.56412587 2520.37968954 1996.37529997 2522.37494469 1994.1875 2524.375 C1989.89742495 2528.24716819 1985.47581921 2531.91575648 1980.984375 2535.55078125 C1977.61237983 2538.31811237 1974.30350975 2541.15165243 1971 2544 C1965.07765697 2549.09886445 1959.0696249 2554.07694889 1953 2559 C1951.77424947 2560.00721634 1950.54902308 2561.01507076 1949.32421875 2562.0234375 C1942.05495935 2567.99256256 1934.70141152 2573.8018048 1927.14624023 2579.4050293 C1921.99226129 2583.23271348 1916.92657892 2587.16345926 1911.875 2591.125 C1904.98877814 2596.51110826 1897.98510252 2601.67029354 1890.83544922 2606.69873047 C1888.13579727 2608.61268962 1885.46248722 2610.56235777 1882.78637695 2612.5090332 C1863.89512891 2626.23624484 1844.66169015 2639.40114245 1825 2652 C1824.19675293 2652.51481934 1823.39350586 2653.02963867 1822.56591797 2653.56005859 C1817.06610258 2657.07572673 1811.53975804 2660.54767193 1806 2664 C1805.04851074 2664.59361328 1804.09702148 2665.18722656 1803.11669922 2665.79882812 C1777.64022839 2681.66314813 1751.7872101 2696.78842028 1725.42578125 2711.1328125 C1722.23693839 2712.87085912 1719.05534464 2714.62146797 1715.875 2716.375 C1685.6057621 2732.97283636 1654.56677484 2748.18224342 1622.98901367 2762.12103271 C1620.96341187 2763.0161687 1618.93952104 2763.91507735 1616.91601562 2764.81494141 C1552.12663026 2793.60878316 1485.278232 2817.75179952 1417 2836.875 C1416.06296234 2837.13847229 1415.12592468 2837.40194458 1414.16049194 2837.67340088 C1411.52549866 2838.41150812 1408.8883718 2839.14126047 1406.25 2839.8671875 C1405.46986038 2840.08518005 1404.68972076 2840.30317261 1403.88594055 2840.527771 C1400.43209756 2841.46580591 1397.6080205 2842 1394 2842 C1397.29229165 2848.15051005 1400.87306651 2853.9837474 1404.8125 2859.73828125 C1405.36981812 2860.55967087 1405.92713623 2861.38106049 1406.50134277 2862.2273407 C1407.70295361 2863.99818294 1408.90608438 2865.76799461 1410.1105957 2867.53686523 C1413.38530192 2872.34758174 1416.64652062 2877.16740809 1419.90625 2881.98828125 C1420.57974487 2882.98425323 1421.25323975 2883.98022522 1421.94714355 2885.00637817 C1428.88389012 2895.2813381 1435.69811628 2905.63548459 1442.5 2916 C1452.06558191 2930.56966667 1461.72902649 2945.06728239 1471.5 2959.5 C1481.27098786 2973.9327388 1490.93305982 2988.43121094 1500.5 3003 C1511.27975775 3019.41361993 1522.19373671 3035.73045036 1533.1953125 3051.99609375 C1542.10096386 3065.16553397 1550.93592116 3078.38047927 1559.74102783 3091.61730957 C1567.98488781 3104.00779731 1576.28224599 3116.360587 1584.62011719 3128.68798828 C1595.63306318 3144.97069698 1606.52224264 3161.32843409 1617.31222534 3177.75970459 C1626.27685341 3191.4071671 1635.34613081 3204.97880798 1644.5 3218.5 C1654.8881986 3233.84442158 1665.14161684 3249.2710291 1675.3125 3264.76025391 C1684.27704863 3278.40752338 1693.34624583 3291.97897787 1702.5 3305.5 C1712.8881986 3320.84442158 1723.14161684 3336.2710291 1733.3125 3351.76025391 C1742.27704863 3365.40752338 1751.34624583 3378.97897787 1760.5 3392.5 C1770.8881986 3407.84442158 1781.14161684 3423.2710291 1791.3125 3438.76025391 C1800.27704863 3452.40752338 1809.34624583 3465.97897787 1818.5 3479.5 C1828.8881986 3494.84442158 1839.14161684 3510.2710291 1849.3125 3525.76025391 C1858.27704863 3539.40752338 1867.34624583 3552.97897787 1876.5 3566.5 C1886.8881986 3581.84442158 1897.14161684 3597.2710291 1907.3125 3612.76025391 C1916.27704863 3626.40752338 1925.34624583 3639.97897787 1934.5 3653.5 C1944.8881986 3668.84442158 1955.14161684 3684.2710291 1965.3125 3699.76025391 C1974.27704863 3713.40752338 1983.34624583 3726.97897787 1992.5 3740.5 C2002.8881986 3755.84442158 2013.14161684 3771.2710291 2023.3125 3786.76025391 C2032.27704863 3800.40752338 2041.34624583 3813.97897787 2050.5 3827.5 C2060.8881986 3842.84442158 2071.14161684 3858.2710291 2081.3125 3873.76025391 C2090.86484767 3888.30236508 2100.54579694 3902.75205896 2110.30041504 3917.15911865 C2119.72219095 3931.07943918 2129.01989921 3945.07692179 2138.25 3959.125 C2147.62049761 3973.38421289 2157.06695436 3987.57681346 2166.70947266 4001.65380859 C2171.14052129 4008.12459763 2175.55856254 4014.60419619 2179.96612549 4021.09100342 C2181.02434386 4022.64646911 2182.08434258 4024.20072519 2183.1461792 4025.75372314 C2184.623834 4027.91499132 2186.09573783 4030.08006787 2187.56640625 4032.24609375 C2188.23998421 4033.22694695 2188.23998421 4033.22694695 2188.9271698 4034.22761536 C2192 4038.77210476 2192 4038.77210476 2192 4041 C2154.57793743 4041.24194535 2117.15581459 4041.47390654 2079.73364258 4041.69824219 C2079.00129385 4041.70263329 2078.26894512 4041.70702438 2077.514404 4041.71154854 C1999.01217651 4042.18196936 1920.50992935 4042.58773728 1842.00675964 4042.86309814 C1840.2621596 4042.86923397 1838.51755955 4042.87536984 1836.7729595 4042.88150575 C1800.14992716 4043.01011567 1763.5268697 4043.12964986 1726.90377397 4043.23870584 C1708.50562054 4043.29350141 1690.10747278 4043.35004016 1671.70932976 4043.40822743 C1668.93411283 4043.4169944 1666.15889575 4043.4257116 1663.38367865 4043.43442673 C1620.67051417 4043.56899913 1577.95790176 4043.74085836 1535.24542236 4044.02124023 C1533.8688459 4044.03027555 1533.8688459 4044.03027555 1532.46445982 4044.0394934 C1517.66899007 4044.13683264 1502.87354165 4044.23731341 1488.07809582 4044.33821138 C1445.44049013 4044.6289318 1402.80331112 4044.89625691 1360.16481304 4045.01015091 C1359.28719903 4045.01250645 1358.40958503 4045.014862 1357.50537666 4045.01728892 C1338.23531326 4045.06859359 1318.9652446 4045.10796203 1299.69513395 4045.13604325 C1291.94040181 4045.1475539 1284.18567277 4045.16078128 1276.43094444 4045.17459869 C1275.58224598 4045.17606949 1274.73354752 4045.17754028 1273.85913093 4045.17905565 C1246.5547344 4045.22722708 1219.25350267 4045.41489497 1191.95038203 4045.67641717 C1164.42525714 4045.93942293 1136.90319652 4046.06421994 1109.37678451 4045.99945547 C1105.56489031 4045.99052111 1101.75299457 4045.98315582 1097.94109535 4045.97673798 C1097.19391768 4045.97542323 1096.44674 4045.97410849 1095.67692058 4045.97275391 C1083.88852786 4045.95606364 1072.1066586 4046.0867575 1060.3200405 4046.28043394 C1048.70053262 4046.4682862 1037.09124182 4046.49301666 1025.47071469 4046.3605998 C1019.25988842 4046.2943699 1013.07060488 4046.29566695 1006.8621373 4046.49486002 C972.07632125 4047.54595137 972.07632125 4047.54595137 961.59915998 4039.05409152 C952.03026891 4029.5575929 945.57290834 4017.5884496 939.54189943 4005.65770581 C934.58649482 3995.87900635 928.52966963 3986.98498644 922.25189305 3978.01752043 C919.20397643 3973.63757704 916.23049137 3969.2072253 913.25 3964.78125 C912.57710937 3963.78480469 911.90421875 3962.78835937 911.2109375 3961.76171875 C903.95294851 3950.98199619 896.8281246 3940.11473881 889.69555664 3929.25183105 C880.56392177 3915.3491179 871.32193836 3901.5257704 862 3887.75 C853.75899443 3875.56873647 845.55039252 3863.37075337 837.5 3851.0625 C837.09056152 3850.43658966 836.68112305 3849.81067932 836.25927734 3849.165802 C834.5631144 3846.57205851 832.86763813 3843.97786753 831.17285156 3841.38322449 C825.13377615 3832.13913931 819.0709407 3822.91068301 813 3813.6875 C812.38769531 3812.75720978 811.77539062 3811.82691956 811.14453125 3810.86843872 C801.42926794 3796.11716963 791.59119478 3781.45251698 781.68969727 3766.82577515 C771.90751999 3752.3713731 762.2673405 3737.8288728 752.6875 3723.23974609 C743.72295137 3709.59247662 734.65375417 3696.02102213 725.5 3682.5 C715.1118014 3667.15557842 704.85838316 3651.7289709 694.6875 3636.23974609 C685.72295137 3622.59247662 676.65375417 3609.02102213 667.5 3595.5 C657.72901275 3581.0672621 648.06687917 3566.56882862 638.5 3552 C627.62774502 3535.44499227 616.61896563 3518.9881128 605.5234375 3502.58203125 C597.4818847 3490.69050052 589.49319283 3478.7655267 581.54486084 3466.81152344 C573.96334832 3455.41214499 566.31893868 3444.0566292 558.64941406 3432.71630859 C547.547286 3416.29920642 536.5673126 3399.80806853 525.68887329 3383.24194336 C516.72387658 3369.59393315 507.65423927 3356.02173867 498.5 3342.5 C488.1118014 3327.15557842 477.85838316 3311.7289709 467.6875 3296.23974609 C458.72295137 3282.59247662 449.65375417 3269.02102213 440.5 3255.5 C430.1118014 3240.15557842 419.85838316 3224.7289709 409.6875 3209.23974609 C400.72295137 3195.59247662 391.65375417 3182.02102213 382.5 3168.5 C372.1118014 3153.15557842 361.85838316 3137.7289709 351.6875 3122.23974609 C342.72295137 3108.59247662 333.65375417 3095.02102213 324.5 3081.5 C314.1118014 3066.15557842 303.85838316 3050.7289709 293.6875 3035.23974609 C284.72295137 3021.59247662 275.65375417 3008.02102213 266.5 2994.5 C256.1118014 2979.15557842 245.85838316 2963.7289709 235.6875 2948.23974609 C226.72295137 2934.59247662 217.65375417 2921.02102213 208.5 2907.5 C198.1118014 2892.15557842 187.85838316 2876.7289709 177.6875 2861.23974609 C168.72295137 2847.59247662 159.65375417 2834.02102213 150.5 2820.5 C140.1118014 2805.15557842 129.85838316 2789.7289709 119.6875 2774.23974609 C110.72295013 2760.59247473 101.65365399 2747.02109175 92.5 2733.5 C81.22864177 2716.85007371 70.10361756 2700.10875732 59.06640625 2683.30273438 C51.09620861 2671.16679041 43.06715638 2659.07169944 35 2647 C21.39889237 2626.63808426 7.81447683 2606.26684227 -5.63522339 2585.80447388 C-16.41703329 2569.40108667 -27.30807562 2553.07806805 -38.31222534 2536.82302856 C-48.09374914 2522.36953556 -57.73327385 2507.82793721 -67.3125 2493.23974609 C-76.27704863 2479.59247662 -85.34624583 2466.02102213 -94.5 2452.5 C-104.8881986 2437.15557842 -115.14161684 2421.7289709 -125.3125 2406.23974609 C-134.27704863 2392.59247662 -143.34624583 2379.02102213 -152.5 2365.5 C-162.8881986 2350.15557842 -173.14161684 2334.7289709 -183.3125 2319.23974609 C-192.27704863 2305.59247662 -201.34624583 2292.02102213 -210.5 2278.5 C-220.8881986 2263.15557842 -231.14161684 2247.7289709 -241.3125 2232.23974609 C-250.27704863 2218.59247662 -259.34624583 2205.02102213 -268.5 2191.5 C-278.8881986 2176.15557842 -289.14161684 2160.7289709 -299.3125 2145.23974609 C-308.27704863 2131.59247662 -317.34624583 2118.02102213 -326.5 2104.5 C-336.88181327 2089.1650102 -347.13117078 2073.74927366 -357.29336548 2058.26794434 C-367.81945907 2042.23696816 -378.50305306 2026.31690818 -389.28515625 2010.45703125 C-394.74528114 2002.41172977 -400.09521579 1994.33152387 -405.19918823 1986.05554199 C-410.07243241 1978.19659583 -415.29463394 1970.57381118 -420.49273682 1962.92764282 C-432.89182736 1944.68332614 -445.10053333 1926.31911455 -457.19262695 1907.87011719 C-464.00194066 1897.48987261 -470.9153775 1887.19453056 -478 1877 C-477.67 1876.34 -477.34 1875.68 -477 1875 C-476.18044994 1874.99975392 -476.18044994 1874.99975392 -475.34434331 1874.99950287 C-428.93781397 1874.98555625 -382.53128484 1874.97092993 -336.12475586 1874.95581055 C-335.20580235 1874.95551121 -334.28684884 1874.95521187 -333.34004826 1874.95490346 C-234.84539432 1874.92280154 -136.35074316 1874.88632525 -37.85609436 1874.84101868 C-35.66749229 1874.84001305 -33.47889023 1874.83900743 -31.29028816 1874.83800181 C14.65218251 1874.81687884 60.59465286 1874.79514146 106.5371229 1874.77269462 C129.61661294 1874.76141897 152.69610303 1874.75026133 175.77559318 1874.73921531 C179.25697967 1874.73754841 182.73836616 1874.73587813 186.21975266 1874.73420772 C239.80846755 1874.70852486 293.39718208 1874.6853684 346.98590088 1874.66955566 C348.13751945 1874.6692158 349.28913802 1874.66887594 350.47565412 1874.66852577 C369.04236253 1874.66306179 387.609071 1874.65781045 406.17577948 1874.65258733 C459.67391546 1874.6375342 513.17204885 1874.62090069 566.67018032 1874.59387684 C567.77105856 1874.59332151 568.87193679 1874.59276618 570.00617498 1874.59219403 C594.17706721 1874.57997301 618.34795894 1874.56694392 642.51885033 1874.55315043 C652.24540515 1874.54761405 661.97196003 1874.54219392 671.69851494 1874.53681374 C672.76302306 1874.53622211 673.82753119 1874.53563048 674.92429714 1874.53502092 C709.1843373 1874.5160377 743.44437205 1874.50650559 777.70441693 1874.50196405 C812.23529921 1874.49734314 846.76616422 1874.48338481 881.29703679 1874.45657366 C886.0765041 1874.45286502 890.85597148 1874.44926267 895.63543892 1874.44572449 C896.57229287 1874.4450271 897.50914681 1874.44432971 898.47439027 1874.44361119 C913.26692807 1874.43287447 928.05944855 1874.43213188 942.85198912 1874.43563199 C957.42311619 1874.43887192 971.99420564 1874.43136074 986.56532141 1874.41267589 C994.34963342 1874.40298366 1002.13387583 1874.39789138 1009.91819096 1874.40660437 C1083.27432084 1874.48268382 1151.0746137 1865.10213549 1218 1834 C1219.04945801 1833.51450684 1220.09891602 1833.02901367 1221.18017578 1832.52880859 C1244.37363307 1821.67839486 1266.45535241 1808.2732087 1287 1793 C1288.05574219 1792.22527344 1289.11148438 1791.45054688 1290.19921875 1790.65234375 C1293.15458002 1788.46189952 1296.08225648 1786.24027273 1299 1784 C1299.5578418 1783.57364258 1300.11568359 1783.14728516 1300.69042969 1782.70800781 C1307.83387777 1777.23517307 1314.71962944 1771.62478283 1321.3046875 1765.484375 C1323.36438389 1763.58587224 1325.44745051 1761.75770458 1327.57421875 1759.9375 C1332.7174677 1755.45135002 1337.53999109 1750.64606255 1342.36303711 1745.82226562 C1343.92608734 1744.26139673 1345.49697365 1742.70872112 1347.06835938 1741.15625 C1352.77299784 1735.48260616 1358.08428956 1729.69903366 1363.08300781 1723.38452148 C1364.91375046 1721.10728467 1366.82557829 1718.95366635 1368.8125 1716.8125 C1374.69529754 1710.26306338 1379.80043486 1703.09282873 1385 1696 C1385.43602539 1695.41057617 1385.87205078 1694.82115234 1386.32128906 1694.21386719 C1433.15616592 1630.82749358 1463.52018463 1551.90934974 1468 1473 C1468.09837158 1471.41566162 1468.09837158 1471.41566162 1468.19873047 1469.79931641 C1472.30715321 1399.83790175 1458.77902495 1328.7974049 1430 1265 C1429.29037109 1263.42605469 1429.29037109 1263.42605469 1428.56640625 1261.8203125 C1415.35374839 1232.81691721 1398.78431234 1205.03075954 1379 1180 C1378.36320312 1179.18402344 1377.72640625 1178.36804687 1377.0703125 1177.52734375 C1364.74534704 1161.91077105 1351.43690356 1147.37036473 1337.4375 1133.25 C1336.57527832 1132.37472656 1335.71305664 1131.49945312 1334.82470703 1130.59765625 C1329.61099625 1125.37703466 1324.21168719 1120.57787526 1318.45336914 1115.96533203 C1316.51581029 1114.41320259 1314.61897621 1112.83986419 1312.75 1111.20703125 C1242.28158617 1049.84746069 1143.68142707 1011.92333021 1043.67825317 1011.915802 C1042.0755751 1011.91911984 1040.47289596 1011.92195588 1038.87021625 1011.9243573 C1035.41163157 1011.93047225 1031.95307507 1011.93972585 1028.49450493 1011.95145988 C1022.86523574 1011.97045877 1017.23596471 1011.98219616 1011.60667419 1011.99278259 C1005.540068 1012.00445527 999.47346419 1012.01649251 993.40686345 1012.03075147 C978.38637896 1012.06569299 963.36595147 1012.08170877 948.34542847 1012.08639526 C947.2572871 1012.0867651 946.16914574 1012.08713493 945.04803039 1012.08751597 C936.09402734 1012.09048866 927.14002413 1012.0926648 918.18602076 1012.09441677 C910.13703431 1012.09600317 902.08804845 1012.09827277 894.0390625 1012.1015625 C892.89171009 1012.1020228 891.74435768 1012.1024831 890.56223701 1012.10295735 C871.94159158 1012.11152341 853.32118584 1012.15603676 834.70063235 1012.21273984 C815.56671057 1012.27009902 796.43307275 1012.28572858 777.29907691 1012.26333606 C765.50381338 1012.25091536 753.70955283 1012.27157148 741.91444723 1012.3346322 C733.83847182 1012.37476569 725.763127 1012.37468814 717.68711706 1012.34283216 C713.02725342 1012.32566577 708.3691926 1012.32644447 703.70951271 1012.37517738 C699.44273176 1012.41941978 695.17913443 1012.41290018 690.91240786 1012.36616836 C689.3702778 1012.35821444 687.82791545 1012.36882795 686.28607978 1012.39999105 C674.7856728 1012.61750091 674.7856728 1012.61750091 670.375489 1008.62266135 C668.3172549 1005.83249073 666.63735127 1003.05193515 665 1000 C663.97879893 998.45448872 662.94488771 996.91717435 661.88989258 995.39453125 C660.88880215 993.86891438 659.89042908 992.34151157 658.89453125 990.8125 C657.7500356 989.06703395 656.6055027 987.32159232 655.4609375 985.57617188 C654.86764648 984.66923584 654.27435547 983.7622998 653.66308594 982.82788086 C643.06572369 966.63404882 632.35230252 950.52396573 621.5 934.5 C611.11108537 919.15606988 600.85837585 903.72895978 590.6875 888.23974609 C581.72295137 874.59247662 572.65375417 861.02102213 563.5 847.5 C553.1118014 832.15557842 542.85838316 816.7289709 532.6875 801.23974609 C523.72295137 787.59247662 514.65375417 774.02102213 505.5 760.5 C495.1118014 745.15557842 484.85838316 729.7289709 474.6875 714.23974609 C465.72294953 700.59247382 456.65359523 687.02113208 447.5 673.5 C434.43273244 654.19650967 421.59035348 634.75033404 408.78642273 615.27151489 C402.0720417 605.06088848 395.29005763 594.89594737 388.49804688 584.73681641 C383.22398307 576.84796847 377.95444097 568.956105 372.6875 561.0625 C372.09346375 560.17237213 371.49942749 559.28224426 370.88739014 558.36514282 C361.72539261 544.63264102 352.63009815 530.85746209 343.5625 517.0625 C333.38119815 501.57354676 323.07860619 486.17209061 312.68777466 470.82302856 C302.90625086 456.36953556 293.26672615 441.82793721 283.6875 427.23974609 C274.72295137 413.59247662 265.65375417 400.02102213 256.5 386.5 C246.1118014 371.15557842 235.85838316 355.7289709 225.6875 340.23974609 C216.72295137 326.59247662 207.65375417 313.02102213 198.5 299.5 C188.1118014 284.15557842 177.85838316 268.7289709 167.6875 253.23974609 C158.72295137 239.59247662 149.65375417 226.02102213 140.5 212.5 C130.1118014 197.15557842 119.85838316 181.7289709 109.6875 166.23974609 C100.72295137 152.59247662 91.65375417 139.02102213 82.5 125.5 C72.72901488 111.06726525 63.06666506 96.56896745 53.5 82 C41.79715512 64.17817934 29.93491733 46.46916821 17.98446655 28.81253052 C15.83034374 25.62896104 13.67871144 22.44371272 11.52740479 19.25823975 C10.00530218 17.00783918 8.47802139 14.76100964 6.95068359 12.51416016 C6.02285302 11.14112548 5.09526716 9.76792539 4.16796875 8.39453125 C3.74203934 7.77132492 3.31610992 7.14811859 2.87727356 6.50602722 C0 2.22760103 0 2.22760103 0 0 Z " fill="#1A1716" transform="translate(1874,230)"/>
<path d="M0 0 C37.50260065 -0.06047935 75.00520505 -0.11847071 112.5078125 -0.17456055 C113.24165825 -0.17565832 113.975504 -0.1767561 114.7315875 -0.17788714 C193.35318354 -0.29543109 271.97478083 -0.39688951 350.59643555 -0.46577454 C352.3425401 -0.46730849 354.08864465 -0.46884246 355.83474921 -0.47037644 C392.48474925 -0.50252495 429.13475086 -0.53240894 465.78475486 -0.55967646 C484.19486007 -0.57337596 502.60496493 -0.58751067 521.0150695 -0.60205686 C523.79218996 -0.60424859 526.56931044 -0.60642789 529.34643091 -0.60860668 C572.11767803 -0.64227238 614.88889074 -0.68528035 657.66009521 -0.75531006 C659.03985815 -0.75756889 659.03985815 -0.75756889 660.44749508 -0.75987335 C675.27837214 -0.78420988 690.10924787 -0.80932941 704.94012345 -0.83455284 C747.64993262 -0.90717909 790.35971535 -0.97402966 833.06958008 -1.00253773 C834.38661354 -1.00342106 834.38661354 -1.00342106 835.73025374 -1.00432223 C855.0035128 -1.01714469 874.27677217 -1.02698852 893.55003417 -1.03401081 C901.30457615 -1.03688871 909.05911793 -1.04019553 916.81365967 -1.04364967 C917.66236819 -1.04401737 918.5110767 -1.04438507 919.38550366 -1.04476391 C946.74531495 -1.05683089 974.1049298 -1.10383308 1001.46466177 -1.16910429 C1029.01815172 -1.23467818 1056.57145095 -1.2661024 1084.12502094 -1.24986387 C1087.93020295 -1.24762989 1091.73538507 -1.24578872 1095.5405674 -1.24418449 C1096.28650984 -1.24385581 1097.03245228 -1.24352712 1097.80099903 -1.24318848 C1109.62609324 -1.23899668 1121.45078464 -1.27187037 1133.27576902 -1.32010849 C1144.89568282 -1.36675168 1156.51495778 -1.37346068 1168.13493384 -1.34014995 C1174.35457477 -1.3234706 1180.57286572 -1.32454037 1186.79236436 -1.37371501 C1192.44567124 -1.41807536 1198.0965691 -1.41222894 1203.7498369 -1.36553973 C1205.78706653 -1.35765304 1207.8244706 -1.36839884 1209.86147674 -1.39958769 C1225.0254342 -1.617129 1225.0254342 -1.617129 1229.90277135 2.37731036 C1231.97341024 5.17334852 1233.4999841 7.86890814 1235 11 C1236.01350873 12.5505666 1237.04633218 14.08894675 1238.11010742 15.60546875 C1239.11119785 17.13108562 1240.10957092 18.65848843 1241.10546875 20.1875 C1242.2499644 21.93296605 1243.3944973 23.67840768 1244.5390625 25.42382812 C1245.13235352 26.33076416 1245.72564453 27.2377002 1246.33691406 28.17211914 C1256.93427631 44.36595118 1267.64769748 60.47603427 1278.5 76.5 C1288.88891463 91.84393012 1299.14162415 107.27104022 1309.3125 122.76025391 C1318.27704863 136.40752338 1327.34624583 149.97897787 1336.5 163.5 C1346.8881986 178.84442158 1357.14161684 194.2710291 1367.3125 209.76025391 C1376.27704863 223.40752338 1385.34624583 236.97897787 1394.5 250.5 C1404.8881986 265.84442158 1415.14161684 281.2710291 1425.3125 296.76025391 C1434.27704863 310.40752338 1443.34624583 323.97897787 1452.5 337.5 C1462.8881986 352.84442158 1473.14161684 368.2710291 1483.3125 383.76025391 C1492.27704863 397.40752338 1501.34624583 410.97897787 1510.5 424.5 C1520.8881986 439.84442158 1531.14161684 455.2710291 1541.3125 470.76025391 C1550.27704863 484.40752338 1559.34624583 497.97897787 1568.5 511.5 C1578.8881986 526.84442158 1589.14161684 542.2710291 1599.3125 557.76025391 C1608.27704863 571.40752338 1617.34624583 584.97897787 1626.5 598.5 C1636.8881986 613.84442158 1647.14161684 629.2710291 1657.3125 644.76025391 C1666.27704863 658.40752338 1675.34624583 671.97897787 1684.5 685.5 C1694.88317231 700.83699724 1705.13362527 716.25490477 1715.2973938 731.73809814 C1724.56911397 745.85813003 1733.96574286 759.88846153 1743.4375 773.875 C1750.94214807 784.95708388 1758.40719791 796.0376215 1765.49365234 807.39355469 C1772.2168716 818.0758431 1779.37903633 828.470801 1786.45556641 838.92041016 C1795.90667074 852.88056453 1805.24864374 866.90674931 1814.5 881 C1824.65238004 896.46234704 1834.92557518 911.83646718 1845.29638672 927.15307617 C1856.0043214 942.97300744 1866.55143328 958.89476803 1877.02148438 974.87304688 C1878.14950252 976.59260345 1879.2777532 978.31200751 1880.40625 980.03125 C1880.94697144 980.85580688 1881.48769287 981.68036377 1882.0447998 982.52990723 C1886.60990674 989.46554869 1891.29980249 996.31278018 1896.06506348 1003.11242676 C1896.58177612 1003.85714233 1897.09848877 1004.60185791 1897.63085938 1005.36914062 C1898.08956421 1006.02418579 1898.54826904 1006.67923096 1899.02087402 1007.35412598 C1900 1009 1900 1009 1900 1011 C1862.49739935 1011.06047935 1824.99479495 1011.11847071 1787.4921875 1011.17456055 C1786.75834175 1011.17565832 1786.024496 1011.1767561 1785.2684125 1011.17788714 C1706.64681646 1011.29543109 1628.02521917 1011.39688951 1549.40356445 1011.46577454 C1547.6574599 1011.46730849 1545.91135535 1011.46884246 1544.16525079 1011.47037644 C1507.51525075 1011.50252495 1470.86524914 1011.53240894 1434.21524514 1011.55967646 C1415.80513993 1011.57337596 1397.39503507 1011.58751067 1378.9849305 1011.60205686 C1376.20781004 1011.60424859 1373.43068956 1011.60642789 1370.65356909 1011.60860668 C1327.88232197 1011.64227238 1285.11110926 1011.68528035 1242.33990479 1011.75531006 C1240.96014185 1011.75756889 1240.96014185 1011.75756889 1239.55250492 1011.75987335 C1224.72162786 1011.78420988 1209.89075213 1011.80932941 1195.05987655 1011.83455284 C1152.35006738 1011.90717909 1109.64028465 1011.97402966 1066.93041992 1012.00253773 C1066.05239761 1012.00312661 1065.1743753 1012.0037155 1064.26974626 1012.00432223 C1044.9964872 1012.01714469 1025.72322783 1012.02698852 1006.44996583 1012.03401081 C998.69542385 1012.03688871 990.94088207 1012.04019553 983.18634033 1012.04364967 C982.33763181 1012.04401737 981.4889233 1012.04438507 980.61449634 1012.04476391 C953.25468505 1012.05683089 925.8950702 1012.10383308 898.53533823 1012.16910429 C870.98184828 1012.23467818 843.42854905 1012.2661024 815.87497906 1012.24986387 C812.06979705 1012.24762989 808.26461493 1012.24578872 804.4594326 1012.24418449 C803.71349016 1012.24385581 802.96754772 1012.24352712 802.19900097 1012.24318848 C790.37390676 1012.23899668 778.54921536 1012.27187037 766.72423098 1012.32010849 C755.10431718 1012.36675168 743.48504222 1012.37346068 731.86506616 1012.34014995 C725.64542523 1012.3234706 719.42713428 1012.32454037 713.20763564 1012.37371501 C707.55432876 1012.41807536 701.9034309 1012.41222894 696.2501631 1012.36553973 C694.21293347 1012.35765304 692.1755294 1012.36839884 690.13852326 1012.39958769 C674.9745658 1012.617129 674.9745658 1012.617129 670.09722865 1008.62268964 C668.02658976 1005.82665148 666.5000159 1003.13109186 665 1000 C663.98649127 998.4494334 662.95366782 996.91105325 661.88989258 995.39453125 C660.88880215 993.86891438 659.89042908 992.34151157 658.89453125 990.8125 C657.7500356 989.06703395 656.6055027 987.32159232 655.4609375 985.57617188 C654.86764648 984.66923584 654.27435547 983.7622998 653.66308594 982.82788086 C643.06572369 966.63404882 632.35230252 950.52396573 621.5 934.5 C611.11108537 919.15606988 600.85837585 903.72895978 590.6875 888.23974609 C581.72295137 874.59247662 572.65375417 861.02102213 563.5 847.5 C553.1118014 832.15557842 542.85838316 816.7289709 532.6875 801.23974609 C523.72295137 787.59247662 514.65375417 774.02102213 505.5 760.5 C495.1118014 745.15557842 484.85838316 729.7289709 474.6875 714.23974609 C465.72295137 700.59247662 456.65375417 687.02102213 447.5 673.5 C437.1118014 658.15557842 426.85838316 642.7289709 416.6875 627.23974609 C407.72295137 613.59247662 398.65375417 600.02102213 389.5 586.5 C379.1118014 571.15557842 368.85838316 555.7289709 358.6875 540.23974609 C349.72295137 526.59247662 340.65375417 513.02102213 331.5 499.5 C321.1118014 484.15557842 310.85838316 468.7289709 300.6875 453.23974609 C291.72295137 439.59247662 282.65375417 426.02102213 273.5 412.5 C263.1118014 397.15557842 252.85838316 381.7289709 242.6875 366.23974609 C233.72295137 352.59247662 224.65375417 339.02102213 215.5 325.5 C205.1118014 310.15557842 194.85838316 294.7289709 184.6875 279.23974609 C175.72295137 265.59247662 166.65375417 252.02102213 157.5 238.5 C147.1118014 223.15557842 136.85838316 207.7289709 126.6875 192.23974609 C117.72295137 178.59247662 108.65375417 165.02102213 99.5 151.5 C89.11248086 136.15658204 78.8596138 120.73105801 68.68951416 105.24276733 C59.68318061 91.53162134 50.56977608 77.89791575 41.375 64.3125 C32.02101515 50.48490483 22.7150132 36.62717696 13.51226807 22.69833374 C12.3025425 20.86804571 11.09125568 19.03878857 9.87835693 17.21060181 C8.20977151 14.69425188 6.54729549 12.17398351 4.88671875 9.65234375 C4.38827957 8.90248199 3.88984039 8.15262024 3.376297 7.3800354 C0 2.22930174 0 2.22930174 0 0 Z " fill="#1A1716" transform="translate(146,230)"/>
</svg>
